<svg aria-hidden="true" style="position: absolute; width: 0; height: 0; overflow: hidden;" version="1.1" xmlns="http://www.w3.org/2000/svg" xmlns:xlink="http://www.w3.org/1999/xlink">
<defs>
<symbol id="Vector-34" viewBox="0 0 34 32">
<path stroke-linejoin="miter" stroke-linecap="round" stroke-miterlimit="4" stroke-width="3.4286" d="M2.286 29.714c0.43-4.631 5.065-7.364 8.018-10.159 6.954-6.581 13.607-12.518 21.696-17.27"></path>
</symbol>
<symbol id="Vector-35" viewBox="0 0 72 32">
<path stroke-linejoin="miter" stroke-linecap="round" stroke-miterlimit="4" stroke-width="8" d="M9.386 28c-19.631-4.661 37.378-24 57.281-24"></path>
</symbol>
<symbol id="Vector-36" viewBox="0 0 27 32">
<path stroke-linejoin="miter" stroke-linecap="round" stroke-miterlimit="4" stroke-width="1.0213" d="M3.857 0.681c-3.976 0.431-3.392 9.438-2.612 11.911 1.801 5.713 6.774 10.258 11.891 9.546M13.136 22.138c1.93-0.269 3.881-1.286 5.69-3.271 2.587-2.84 2.031-9.329-3.014-8.382-5.806 1.089-4.925 6.903-2.676 11.653zM13.136 22.138c1.091 2.304 2.503 4.359 3.63 5.503 1.374 1.394 4.546 2.619 7.119 2.442M23.885 30.082c0.82-0.056 1.579-0.255 2.2-0.636M23.885 30.082c0.793-0.358 1.679-0.744 2.204-0.929M23.885 30.082c-0.51 0.23-0.981 0.45-1.292 0.597-3.23 1.531 1.901-0.089 2.964-0.686 0.308-0.173 0.473-0.357 0.528-0.547M26.085 29.446c0.095-0.058 0.187-0.121 0.275-0.188 0.364-0.276 0.179-0.264-0.271-0.105M26.085 29.446c0.028-0.096 0.028-0.194 0.004-0.293M26.089 29.153c-0.237-0.982-2.825-2.034-3.245-2.444"></path>
</symbol>
</defs>
</svg>
