<svg aria-hidden="true" style="position: absolute; width: 0; height: 0; overflow: hidden;" version="1.1" xmlns="http://www.w3.org/2000/svg" xmlns:xlink="http://www.w3.org/1999/xlink">
    <defs>
        <symbol id="bike-delivery-icon-1" viewBox="0 0 46 32">
            <path
                d="M10.79 5.012l1.777 0.033-3.932 12.828c0.542 0.133 1.055 0.292 1.538 0.474-0.475-0.178-0.976-0.333-1.508-0.466-3.449-0.766-6.3 0.352-8.665 3.010l15.451 7.212c0.097-0.759 0.142-1.47 0.127-2.14 0.004 0.096 0.011 0.196 0.011 0.296h14.355c0.004 3.047 2.503 5.512 5.582 5.512s5.578-2.469 5.582-5.512h4.699c0.325-6.32-2.69-11.18-7.973-11.647h7.108c0.565 0 1.025-0.459 1.025-1.014v-1.114c0-0.552-0.457-1-1.010-1h-0.090v-7.634c0-0.5-0.415-0.911-0.92-0.911h-13.244c-0.505 0-0.92 0.411-0.92 0.911v7.63h-6.547c-0.692-0.022-1.059 0.289-1.063 0.974v3.576c2.948 2.295 3.397 5.883 0.707 7.904h-4.362c-0.112-3.439-2.099-5.535-5.399-7.852l1.968-6.001c0.812-1.866 0.277-3.28-0.909-4.269 0.37-1.177 0.636-2.184 0.554-3.006l2.061 0.422c0.67 0.137 0.842 0.374 1.059-0.267 0.037-0.111 0.067-0.218 0.086-0.329 0.168-0.877 0.064-0.818-0.655-0.955l-2.2-0.422h-0.655l-0.808-0.448c-0.483-0.274-0.984-0.437-1.496-0.503l-0.707-0.044c-0.726 0-1.541-0.2-1.96 0.463-0.007 0.011-0.011 0.052-0.015 0.111-0.296 0.1-0.55 0.318-0.741 0.618-0.236 0.363-0.378 0.859-0.378 1.399s0.146 1.037 0.378 1.399c0.262 0.407 0.64 0.666 1.074 0.677 0.251 0.178 0.647 0.078 1.014 0.085zM38.583 9.247h4.662v0.811h-4.662v-0.811zM35.040 3.735h3.367v3.621l-1.766-1.355-1.601 1.355v-3.621zM38.583 11.358h4.662v0.811h-4.662v-0.811zM2.959 22.275l4.976 2.332-1.616-0.733c-1.111 0.233-1.942 1.211-1.942 2.377 0 1.344 1.1 2.432 2.458 2.432s2.458-1.088 2.458-2.432c0-0.415-0.105-0.803-0.288-1.148l3.397 1.592c-0.228 2.843-2.634 5.079-5.563 5.079-3.083 0-5.582-2.473-5.582-5.523-0.007-1.562 0.647-2.973 1.702-3.976zM9.454 1.78c0.022 0.711 0.071 1.625 0.105 2.24-0.060-0.052-0.12-0.118-0.172-0.204-0.157-0.241-0.251-0.585-0.251-0.97s0.097-0.729 0.251-0.97c0.022-0.033 0.045-0.067 0.067-0.096zM33.072 26.259h4.916c-0.004 1.34-1.104 2.421-2.458 2.421s-2.454-1.081-2.458-2.421z"
            ></path>
        </symbol>
        <symbol id="cash-on-delivery-icon-1" viewBox="0 0 33 32">
            <path
                d="M7.965 2.189c-0.090-0.001-0.179 0.015-0.263 0.049s-0.16 0.083-0.224 0.146-0.115 0.138-0.15 0.221c-0.035 0.083-0.053 0.172-0.053 0.262v1.538l-1.99 1.99v-4.362c-0.001-0.488 0.192-0.957 0.537-1.303 0.348-0.341 0.814-0.532 1.301-0.534h23.86c0.487 0.002 0.953 0.194 1.301 0.534 0.337 0.349 0.528 0.813 0.534 1.298v19.599c0 0.489-0.12 1.052-0.534 1.301-0.346 0.342-0.812 0.534-1.298 0.534h-14.511c-0.088-0.471-0.233-0.929-0.433-1.365l0.641-0.638h13.475c0.179-0.001 0.349-0.073 0.475-0.2s0.197-0.298 0.198-0.476v-17.917c0-0.18-0.071-0.353-0.199-0.48s-0.3-0.199-0.48-0.199h-3.686v7.059l-3.894-1.947-3.876 1.947v-7.059h-10.732zM2.495 20.949l-0.849 4.808c-0.012 0.063-0.039 0.122-0.080 0.171-0.218 0.249-0.367 0.551-0.43 0.876-0.024 0.085-0.025 0.176-0.001 0.262s0.070 0.163 0.135 0.224l3.080 3.088c0.205 0.2 0.466 0.334 0.748 0.382 0.325 0.1 0.671 0.11 1.002 0.029h0.024l0.58-0.144c0.889-0.216 1.664-0.409 2.385-1.068l0.924-0.964c0.011-0.016 0.024-0.032 0.037-0.045 0.013 0 0.104-0.104 0.227-0.219 0.63-0.62 1.416-1.384 0.937-2.051l-0.371-0.371c-0.179 0.174-0.369 0.342-0.55 0.508s-0.323 0.283-0.467 0.427c-0.073 0.073-0.173 0.114-0.276 0.114s-0.203-0.041-0.276-0.114c-0.073-0.073-0.115-0.173-0.115-0.276s0.041-0.203 0.115-0.276c0.142-0.144 0.321-0.302 0.502-0.465 0.628-0.55 1.335-1.183 0.959-1.736l-0.366-0.366-0.053-0.067c-0.211 0.216-0.443 0.422-0.67 0.622-0.166 0.147-0.32 0.283-0.465 0.427-0.074 0.073-0.173 0.114-0.276 0.114s-0.203-0.041-0.276-0.114c-0.037-0.036-0.066-0.079-0.086-0.127s-0.030-0.098-0.030-0.15 0.010-0.102 0.030-0.15c0.020-0.047 0.049-0.090 0.086-0.127 0.142-0.144 0.321-0.302 0.502-0.462 0.628-0.553 1.335-1.186 0.959-1.739l-0.366-0.366c-0.024-0.026-0.046-0.055-0.064-0.085l-1.068 1.068c-0.073 0.073-0.173 0.114-0.276 0.114s-0.203-0.041-0.276-0.114-0.114-0.173-0.114-0.276c0-0.104 0.041-0.203 0.114-0.276l2.017-2.017c0.483-0.483 0.593-0.986 0.467-1.368-0.045-0.139 0-0.142-0.101-0.24-0.051-0.050-0.107-0.094-0.168-0.131-0.029 0-0.051-0.016-0.080-0.045-0.034-0.017-0.070-0.031-0.107-0.043-0.334-0.112-0.652 0.085-1.090 0.457l-0.019 0.016c-0.048 0.040-0.096 0.083-0.144 0.131l-4.196 4.196c-0.074 0.073-0.173 0.114-0.276 0.114s-0.203-0.041-0.276-0.114c-0.067-0.066-0.108-0.154-0.115-0.248s0.021-0.187 0.078-0.262l-1.528-1.53zM5.021 21.238l0.136-0.134 2.759-2.762c-0.523-0.235-0.958-0.632-1.24-1.132s-0.397-1.077-0.328-1.646 0.318-1.103 0.711-1.521c0.393-0.418 0.909-0.7 1.474-0.804s1.147-0.025 1.663 0.225c0.516 0.251 0.939 0.659 1.207 1.167s0.366 1.088 0.281 1.655c-0.085 0.567-0.35 1.093-0.755 1.5l-0.027 0.027c0.022 0.018 0.042 0.038 0.061 0.059 0.085 0.081 0.161 0.17 0.227 0.267l3.424-3.411c-0.252-0.254-0.393-0.597-0.393-0.955s0.141-0.701 0.393-0.955l-2.551-2.551c-0.253 0.253-0.596 0.395-0.954 0.395s-0.701-0.142-0.954-0.395l-7.097 7.097c0.252 0.254 0.393 0.597 0.393 0.955s-0.141 0.701-0.393 0.955l1.96 1.963zM11.042 20.33c-0.097 0.136-0.206 0.263-0.326 0.379l-0.398 0.401c0.031 0.018 0.060 0.039 0.085 0.064l0.382 0.385c0.021 0.021 0.040 0.045 0.056 0.069 0.186 0.222 0.294 0.5 0.307 0.79s-0.071 0.576-0.237 0.813c0.053 0.020 0.102 0.051 0.142 0.091l0.382 0.382c0.021 0.022 0.040 0.046 0.056 0.072 0.196 0.239 0.304 0.539 0.304 0.848s-0.107 0.609-0.304 0.848c0.017 0.012 0.033 0.025 0.048 0.040l0.382 0.382c0.020 0.023 0.039 0.047 0.056 0.072 0.889 1.215-0.171 2.246-1.023 3.080l-0.219 0.219-0.948 0.996-0.032 0.029c-0.868 0.801-1.731 0.999-2.727 1.242l-0.569 0.142h-0.016c-0.475 0.142-0.976 0.177-1.466 0.104-0.44-0.075-0.846-0.284-1.162-0.598l-3.309-3.325c-0.161-0.149-0.279-0.338-0.342-0.548s-0.069-0.433-0.016-0.646c0.121-0.462 0.344-0.89 0.654-1.253l0.871-5.013v-0.021c0-0.061 0.021-0.131 0.035-0.208l-1.707-1.704 11.261-11.261 6.456 6.456-6.675 6.675z"
            ></path>
        </symbol>
        <symbol id="package-box-ui-4-svgrepo-com-1" viewBox="0 0 32 32">
            <path
                d="M6.92 23.922c-0.262 0-0.514 0.104-0.699 0.29s-0.29 0.437-0.29 0.699c0 0.262 0.104 0.514 0.29 0.699s0.437 0.29 0.699 0.29h5.931c0.262 0 0.514-0.104 0.699-0.29s0.29-0.437 0.29-0.699c0-0.262-0.104-0.514-0.29-0.699s-0.437-0.29-0.699-0.29h-5.931z"
            ></path>
            <path
                d="M5.931 2.174c-0.184 0-0.364 0.052-0.52 0.148s-0.282 0.235-0.364 0.4l-2.966 5.966c-0.063 0.13-0.097 0.272-0.098 0.417-0.002 0.008-0.004 0.015-0.006 0.023v19.735c0 0.262 0.104 0.514 0.29 0.699s0.437 0.29 0.699 0.29h25.701c0.262-0 0.514-0.104 0.699-0.29s0.29-0.437 0.29-0.699v-19.737c-0.001-0.152-0.036-0.302-0.104-0.438l-2.966-5.966c-0.082-0.165-0.208-0.303-0.364-0.4s-0.336-0.148-0.52-0.148h-19.77zM6.541 4.151h6.138l-0.647 3.989h-7.472l1.981-3.989zM14.679 4.151h4.253l0.666 3.989h-5.564l0.645-3.989zM20.936 4.151h4.153l1.983 3.989h-5.47l-0.666-3.989zM3.954 10.117h7.908v9.85c0 0.195 0.058 0.387 0.167 0.549s0.263 0.289 0.444 0.364c0.181 0.075 0.379 0.094 0.571 0.056s0.368-0.132 0.506-0.27l3.255-3.255 3.255 3.255c0.138 0.138 0.314 0.232 0.506 0.27s0.39 0.018 0.571-0.056c0.181-0.075 0.335-0.201 0.444-0.364s0.167-0.354 0.167-0.549v-9.85h5.931v17.758h-23.724v-17.758zM13.839 10.117h5.931v7.464l-2.267-2.267c-0.185-0.185-0.437-0.289-0.699-0.289s-0.514 0.104-0.699 0.289l-2.267 2.267v-7.464z"
            ></path>
        </symbol>
    </defs>
</svg>
