<svg aria-hidden="true" style="position: absolute; width: 0; height: 0; overflow: hidden;" version="1.1" xmlns="http://www.w3.org/2000/svg" xmlns:xlink="http://www.w3.org/1999/xlink">
    <defs>
        <symbol id="Instagram" viewBox="0 0 32 32">
            <path
                d="M31.91 9.403c-0.077-1.704-0.352-2.87-0.743-3.888-0.41-1.050-0.954-1.947-1.844-2.831s-1.779-1.441-2.829-1.845c-1.018-0.397-2.183-0.666-3.886-0.743-1.709-0.077-2.253-0.096-6.593-0.096-4.346 0-4.891 0.019-6.593 0.096s-2.868 0.352-3.886 0.743c-1.056 0.41-1.952 0.954-2.836 1.845s-1.44 1.781-1.844 2.831c-0.39 1.018-0.666 2.184-0.743 3.888-0.077 1.71-0.096 2.255-0.096 6.597 0 4.349 0.019 4.894 0.096 6.597s0.352 2.869 0.743 3.888c0.41 1.050 0.954 1.947 1.844 2.831 0.883 0.89 1.78 1.441 2.829 1.845 1.018 0.397 2.183 0.666 3.886 0.743 1.709 0.077 2.253 0.096 6.593 0.096 4.346 0 4.891-0.019 6.593-0.096s2.868-0.352 3.886-0.743c1.050-0.41 1.946-0.954 2.829-1.845s1.44-1.781 1.844-2.831c0.397-1.018 0.666-2.184 0.743-3.888 0.077-1.71 0.096-2.255 0.096-6.597s-0.013-4.894-0.090-6.597zM29.036 22.469c-0.070 1.563-0.333 2.415-0.55 2.972-0.288 0.743-0.64 1.281-1.203 1.845s-1.095 0.903-1.844 1.204c-0.563 0.218-1.415 0.48-2.97 0.551-1.684 0.077-2.189 0.096-6.465 0.096s-4.782-0.019-6.465-0.096c-1.562-0.070-2.413-0.333-2.97-0.551-0.743-0.288-1.28-0.64-1.844-1.204s-0.903-1.095-1.203-1.845c-0.218-0.564-0.48-1.416-0.55-2.972-0.077-1.685-0.096-2.191-0.096-6.469s0.019-4.785 0.096-6.469c0.070-1.563 0.333-2.415 0.55-2.972 0.288-0.743 0.64-1.281 1.203-1.845s1.095-0.903 1.844-1.204c0.563-0.218 1.415-0.48 2.97-0.551 1.684-0.077 2.189-0.096 6.465-0.096s4.782 0.019 6.465 0.096c1.562 0.070 2.413 0.333 2.97 0.551 0.743 0.288 1.28 0.641 1.844 1.204s0.903 1.095 1.203 1.845c0.218 0.564 0.48 1.416 0.55 2.972 0.077 1.685 0.096 2.191 0.096 6.469s-0.026 4.785-0.096 6.469z"
            ></path>
            <path
                d="M16.003 7.776c-4.545 0-8.219 3.683-8.219 8.224 0 4.548 3.681 8.224 8.219 8.224s8.219-3.689 8.219-8.224c0-4.548-3.674-8.224-8.219-8.224zM16.003 21.335c-2.945 0-5.332-2.389-5.332-5.335s2.388-5.335 5.332-5.335c2.945 0 5.332 2.389 5.332 5.335s-2.388 5.335-5.332 5.335z"
            ></path>
            <path d="M24.543 9.377c1.061 0 1.92-0.86 1.92-1.922s-0.86-1.922-1.92-1.922c-1.061 0-1.92 0.86-1.92 1.922s0.86 1.922 1.92 1.922z"></path>
            <path
                d="M0 16c0 4.349 0.019 4.894 0.096 6.597s0.352 2.869 0.743 3.888c0.41 1.050 0.954 1.947 1.844 2.831 0.883 0.884 1.78 1.441 2.829 1.845 1.018 0.397 2.183 0.666 3.886 0.743 1.709 0.077 2.253 0.096 6.593 0.096 4.346 0 4.891-0.019 6.593-0.096s2.868-0.352 3.886-0.743c1.050-0.41 1.946-0.954 2.829-1.845 0.883-0.884 1.44-1.781 1.844-2.831 0.397-1.018 0.666-2.184 0.743-3.888 0.077-1.71 0.096-2.255 0.096-6.597 0-4.349-0.019-4.894-0.096-6.597s-0.352-2.87-0.743-3.888c-0.41-1.050-0.954-1.947-1.844-2.831-0.877-0.89-1.773-1.441-2.823-1.845-1.018-0.397-2.183-0.666-3.886-0.743-1.709-0.077-2.253-0.096-6.593-0.096-4.346 0-4.891 0.019-6.593 0.096s-2.868 0.352-3.886 0.743c-1.050 0.41-1.946 0.954-2.829 1.845s-1.44 1.781-1.844 2.831c-0.397 1.018-0.672 2.184-0.749 3.888s-0.096 2.248-0.096 6.597zM2.887 16c0-4.272 0.019-4.785 0.096-6.469 0.070-1.563 0.333-2.415 0.55-2.972 0.288-0.743 0.64-1.281 1.203-1.845s1.095-0.903 1.844-1.204c0.563-0.218 1.415-0.48 2.97-0.551 1.684-0.077 2.189-0.096 6.465-0.096s4.782 0.019 6.465 0.096c1.562 0.070 2.413 0.333 2.97 0.551 0.743 0.288 1.28 0.641 1.844 1.204s0.903 1.095 1.203 1.845c0.218 0.564 0.48 1.416 0.55 2.972 0.077 1.685 0.096 2.191 0.096 6.469s-0.019 4.785-0.096 6.469c-0.070 1.563-0.333 2.415-0.55 2.972-0.288 0.743-0.64 1.281-1.203 1.845s-1.095 0.903-1.844 1.204c-0.563 0.218-1.415 0.48-2.97 0.551-1.684 0.077-2.189 0.096-6.465 0.096s-4.782-0.019-6.465-0.096c-1.562-0.070-2.413-0.333-2.97-0.551-0.743-0.288-1.28-0.64-1.844-1.204s-0.903-1.095-1.203-1.845c-0.218-0.564-0.48-1.416-0.55-2.972-0.083-1.685-0.096-2.197-0.096-6.469z"
            ></path>
        </symbol>
        <symbol id="telegram" viewBox="0 0 32 32">
            <path
                d="M12.739 31.999c-0.105 0-0.212-0.020-0.316-0.059-0.409-0.157-0.684-0.593-0.684-1.083v-10.399c0-0.328 0.123-0.638 0.337-0.856l4.216-4.269-6.965 4.627c-0.289 0.192-0.647 0.206-0.949 0.035l-7.825-4.457c-0.355-0.201-0.571-0.623-0.552-1.074 0.019-0.453 0.267-0.849 0.636-1.013l29.999-13.37c0.337-0.155 0.725-0.081 1.007 0.19 0.28 0.268 0.409 0.69 0.337 1.1l-5.217 29.711c-0.064 0.36-0.273 0.663-0.567 0.815-0.292 0.152-0.632 0.136-0.909-0.047l-8.365-5.444-3.383 5.139c-0.193 0.291-0.492 0.454-0.8 0.454zM16.651 23.771c0.169 0 0.34 0.049 0.495 0.149l7.927 5.159 4.585-26.111-26.191 11.674 5.323 3.032 15.186-10.090c0.444-0.299 1.013-0.157 1.312 0.318 0.303 0.475 0.239 1.135-0.147 1.525l-11.401 11.543v6.466l2.113-3.21c0.195-0.297 0.495-0.457 0.799-0.457z"
            ></path>
        </symbol>
        <symbol id="viber" viewBox="0 0 32 32">
            <path
                stroke-linejoin="round"
                stroke-linecap="round"
                stroke-miterlimit="4"
                stroke-width="1.2635"
                d="M16 0.889c-7.843 0-15.111 1.262-15.111 12.909 0 7.458 2.993 10.657 7.196 11.991v3.744c-0.032 0.315 0.041 0.632 0.209 0.901s0.419 0.475 0.717 0.587c0.297 0.111 0.623 0.122 0.927 0.029s0.568-0.283 0.752-0.541l3.368-3.83h1.943c7.843 0 15.111-1.248 15.111-12.909s-7.268-12.88-15.111-12.88z"
            ></path>
            <path
                stroke-linejoin="round"
                stroke-linecap="round"
                stroke-miterlimit="4"
                stroke-width="1.2635"
                d="M16.001 10.929c0.573 0 1.122 0.227 1.526 0.63s0.632 0.951 0.632 1.521M16.001 5.192c2.099 0 4.113 0.831 5.597 2.311s2.318 3.486 2.318 5.578M16.001 8.060c1.336 0 2.617 0.529 3.562 1.47s1.475 2.218 1.475 3.55M10.963 18.101c1.871 1.865 6.001 4.303 7.915 4.303 0.84 0.009 1.656-0.272 2.312-0.795s1.11-1.255 1.286-2.074v-1.434c0 0-1.77-0.861-2.878-1.434s-2.878 1.434-2.878 1.434c-1.347-0.437-2.577-1.173-3.598-2.151-0.982-1.018-1.72-2.243-2.159-3.586 0 0 2.015-1.764 1.439-2.869s-1.439-2.869-1.439-2.869h-1.439c-0.821 0.175-1.556 0.628-2.081 1.281s-0.806 1.468-0.798 2.304c0 1.908 2.447 6.024 4.317 7.889z"
            ></path>
        </symbol>
    </defs>
</svg>
