<svg aria-hidden="true" style="position: absolute; width: 0; height: 0; overflow: hidden;" version="1.1" xmlns="http://www.w3.org/2000/svg" xmlns:xlink="http://www.w3.org/1999/xlink">
    <defs>
        <symbol id="Vector-13" viewBox="0 0 98 32">
            <path
                stroke-linejoin="miter"
                stroke-linecap="round"
                stroke-miterlimit="4"
                stroke-width="1.7778"
                d="M97.265 31.035c-1.591-16.617-18.837-22.696-33.577-22.544-6.877 0.071-13.333 3.671-16.759 9.721-1.29 2.278-2.154 4.735-2.222 7.366-0.054 2.099 0.503 2.823 2.579 3.37 5.16 1.358 10.899 1.246 13.628-4.175 4.866-9.665-8.571-16.795-15.596-19.592-5.922-2.357-12.008-3.447-18.339-3.892-4.88-0.342-10.198-0.676-14.82 1.267-4.472 1.88-9.254 6.447-10.974 11.033"
            ></path>
        </symbol>
        <symbol id="Vector-14" viewBox="0 0 10 32">
            <path
                stroke-linejoin="miter"
                stroke-linecap="round"
                stroke-miterlimit="4"
                stroke-width="1.0787"
                d="M6.537 0.744c-1.316 2.188-2.695 4.349-3.918 6.591-1.756 3.219-2.256 6.739-1.53 10.346 1.042 5.178 3.735 10.942 8.387 13.733"
            ></path>
        </symbol>
        <symbol id="Vector-15" viewBox="0 0 54 32">
            <path
                stroke-linejoin="miter"
                stroke-linecap="round"
                stroke-miterlimit="4"
                stroke-width="0.9505"
                d="M3.467 1.004c-1.8 3.36-3.558 8.169-2.289 11.978 2.327 6.982 9.288 10.175 16.288 9.422 8.423-0.906 14.184-8.007 15.564-16.021 0.337-1.961 0.477-6.332-2.766-5.684-2.14 0.428-3.982 5.044-4.578 6.714-1.728 4.85-1.996 11.552-0.401 16.46 0.975 2.998 2.822 6.272 6.065 7.21 3.954 1.144 8.988-0.254 12.035-2.899 4.375-3.797 7.26-9.831 9.155-15.201 0.546-1.546 0.494-1.55 0.668-2.766 0.019-0.133 0.038 0.266 0.038 0.401"
            ></path>
        </symbol>
    </defs>
</svg>
