<svg aria-hidden="true" style="position: absolute; width: 0; height: 0; overflow: hidden;" version="1.1" xmlns="http://www.w3.org/2000/svg" xmlns:xlink="http://www.w3.org/1999/xlink">
    <defs>
        <symbol id="arrleft" viewBox="0 0 168 32"> 
            <path
                d="M2.586 17.414c-0.781-0.781-0.781-2.047 0-2.828l12.728-12.728c0.781-0.781 2.047-0.781 2.828 0s0.781 2.047 0 2.828l-11.314 11.314 11.314 11.314c0.781 0.781 0.781 2.047 0 2.828s-2.047 0.781-2.828 0l-12.728-12.728zM168 18h-164v-4h164v4z"
            ></path>
        </symbol>
        <symbol id="arrright" viewBox="0 0 168 32">
            <path
                d="M165.414 17.414c0.781-0.781 0.781-2.047 0-2.828l-12.728-12.728c-0.781-0.781-2.048-0.781-2.828 0s-0.781 2.047 0 2.828l11.314 11.314-11.314 11.314c-0.781 0.781-0.781 2.047 0 2.828s2.047 0.781 2.828 0l12.728-12.728zM0 18h164v-4h-164v4z"
            ></path>
        </symbol>
        <symbol id="about_me" viewBox="0 0 55 32">
            <path
                stroke-linejoin="miter"
                stroke-linecap="round"
                stroke-miterlimit="4"
                stroke-width="0.6531"
                d="M25.334 0.995c-0.201-1.405-0.827-1.124-1.756-0.367-2.834 2.311-4.529 5.59-6.31 8.722-2.338 4.111-4.29 8.416-6.522 12.582-1.564 2.917-3.462 6.269-6.349 8.085-1.683 1.059-3.8 0.565-4.265-1.563-0.598-2.738 0.927-5.434 2.759-7.333 2.673-2.769 5.882-3.777 9.455-4.882 1.16-0.359 2.734-0.65 3.608-1.524"
            ></path>
            <path
                stroke-linejoin="miter"
                stroke-linecap="round"
                stroke-miterlimit="4"
                stroke-width="0.6531"
                d="M21.165 5.163c-0.496 0.124-1.145 1.383-1.351 1.717-1.474 2.399-2.588 5.061-3.695 7.642-2.349 5.473-4.198 11.112-5.721 16.865"
            ></path>
            <path
                stroke-linejoin="miter"
                stroke-linecap="round"
                stroke-miterlimit="4"
                stroke-width="0.6531"
                d="M16.129 24.44c4.088-2.373 7.973-5.35 11.289-8.732 0.918-0.936 3.165-2.87 3.165-4.351 0-1.503-3.097 1.245-3.203 1.341-4.069 3.692-7.855 8.406-9.417 13.768-0.137 0.47-0.615 2.506 0.579 1.737 1.196-0.771 2.237-2.115 2.895-3.358 1.288-2.432-1.84-0.881-2.653-0.067-0.287 0.286-0.79 0.964-0.28 1.322 0.747 0.525 2.127-0.256 2.788-0.56 1.462-0.671 2.945-1.32 4.371-2.065 0.424-0.222 1.516-1.065 1.283-0.646-0.325 0.584-1.585 2.385-0.010 2.248 0.893-0.078 1.733-0.723 2.48-1.158 0.642-0.374 2.22-1.004 2.325-1.91 0.21-1.811-3.529-0.234-3.994 0.347-0.352 0.44-0.44 1.092 0.067 1.447 0.756 0.53 1.863 0.064 2.615-0.231 1.158-0.455 2.248-1.080 3.367-1.621 0.5-0.242 1.362-0.791 1.92-0.386 0.583 0.424-0.351 1.694 0.772 1.409 0.8-0.203 1.651-0.599 2.373-0.984 0.217-0.116 1.368-1.108 1.64-0.984 0.159 0.072-0.227 0.31-0.203 0.482 0.070 0.488 1.025 0.219 1.283 0.135 2.598-0.847 4.659-3.688 6.329-5.693"
            ></path>
            <path stroke-linejoin="miter" stroke-linecap="round" stroke-miterlimit="4" stroke-width="0.6531" d="M50.169 12.283c-0.078-0.353-3.257 3.622-3.599 4.197-1.415 2.384-2.605 4.894-3.695 7.439"></path>
            <path stroke-linejoin="miter" stroke-linecap="round" stroke-miterlimit="4" stroke-width="0.6531" d="M43.743 15.062c3.133 0.416 6.255 0.905 9.378 1.389"></path>
            <path
                stroke-linejoin="miter"
                stroke-linecap="round"
                stroke-miterlimit="4"
                stroke-width="0.6531"
                d="M33.322 28.956c0.775-1.198 0.804 0.686 0.772 1.206-0.033 0.522-0.27 1.252-0.174 1.766 0.071 0.38 1.432-1.033 1.486-1.1 0.686-0.842 1.274-1.846 2.238-2.412 0.486-0.285 0.473 0.322 0.559 0.637 0.501 1.815 2.686 0.828 3.695 0.058 0.449-0.343 1.835-2.282 2.152-1.235 0.557 1.844 3.097 0.605 3.917-0.309 1.676-1.866-1.095-2.56-1.254-0.868-0.267 2.836 6.875 0.18 7.97-0.174"
            ></path>
        </symbol>
        <symbol id="arrowdown" viewBox="0 0 55 32">
            <path
                d="M25.004 29.853c1.339 1.339 3.51 1.339 4.849 0l21.819-21.819c1.339-1.339 1.339-3.51 0-4.849s-3.51-1.339-4.849 0l-19.395 19.395-19.395-19.395c-1.339-1.339-3.51-1.339-4.849 0s-1.339 3.51 0 4.849l21.819 21.819zM24 22.857v4.571h6.857v-4.571h-6.857z"
            ></path>
        </symbol>
        <symbol id="ArrowLeftCatalog" viewBox="0 0 75 32">
            <path
                d="M2.298 17.257c-0.694-0.694-0.694-1.82 0-2.514l11.314-11.314c0.694-0.694 1.82-0.694 2.514 0s0.694 1.82 0 2.514l-10.057 10.057 10.057 10.057c0.694 0.694 0.694 1.82 0 2.514s-1.82 0.694-2.514 0l-11.314-11.314zM74.667 17.778h-71.111v-3.556h71.111v3.556z"
            ></path>
        </symbol>
        <symbol id="ArrowRightCatalog" viewBox="0 0 75 32">
            <path
                d="M72.368 17.257c0.694-0.694 0.694-1.82 0-2.514l-11.314-11.314c-0.694-0.694-1.82-0.694-2.514 0s-0.694 1.82 0 2.514l10.057 10.057-10.057 10.057c-0.694 0.694-0.694 1.82 0 2.514s1.82 0.694 2.514 0l11.314-11.314zM0 17.778h71.111v-3.556h-71.111v3.556z"
            ></path>
        </symbol>
        <symbol id="arrowup" viewBox="0 0 57 32">
            <path
                d="M25.93 1.041c1.389-1.389 3.64-1.389 5.028 0l22.628 22.627c1.388 1.389 1.388 3.64 0 5.028s-3.64 1.389-5.028 0l-20.113-20.113-20.113 20.113c-1.389 1.389-3.64 1.389-5.028 0s-1.389-3.64 0-5.028l22.627-22.627zM24.889 7.111v-3.556h7.111v3.556h-7.111z"
            ></path>
        </symbol>
        <symbol id="burgermenu" viewBox="0 0 36 32">
            <path d="M9.946 8.649h16.432c0.716 0 1.297 0.581 1.297 1.297s-0.581 1.297-1.297 1.297h-16.432c-0.716 0-1.297-0.581-1.297-1.297s0.581-1.297 1.297-1.297z"></path>
            <path d="M9.946 14.703h16.432c0.716 0 1.297 0.581 1.297 1.297s-0.581 1.297-1.297 1.297h-16.432c-0.716 0-1.297-0.581-1.297-1.297s0.581-1.297 1.297-1.297z"></path>
            <path d="M9.946 20.757h16.432c0.716 0 1.297 0.581 1.297 1.297s-0.581 1.297-1.297 1.297h-16.432c-0.716 0-1.297-0.581-1.297-1.297s0.581-1.297 1.297-1.297z"></path>
        </symbol>
        <symbol id="cart" viewBox="0 0 32 32">
            <path
                d="M9.333 24c-1.467 0-2.653 1.2-2.653 2.667s1.187 2.667 2.653 2.667c1.467 0 2.667-1.2 2.667-2.667s-1.2-2.667-2.667-2.667zM1.333 2.667v2.667h2.667l4.8 10.12-1.8 3.267c-0.213 0.373-0.333 0.813-0.333 1.28 0 1.467 1.2 2.667 2.667 2.667h16v-2.667h-15.44c-0.187 0-0.333-0.147-0.333-0.333l0.040-0.16 1.2-2.173h9.933c1 0 1.88-0.547 2.333-1.373l4.773-8.653c0.107-0.187 0.16-0.413 0.16-0.64 0-0.733-0.6-1.333-1.333-1.333h-19.72l-1.253-2.667h-4.36zM22.667 24c-1.467 0-2.653 1.2-2.653 2.667s1.187 2.667 2.653 2.667c1.467 0 2.667-1.2 2.667-2.667s-1.2-2.667-2.667-2.667z"
            ></path>
        </symbol>
        <symbol id="close" viewBox="0 0 32 32">
            <path
                d="M8.56 6.44c-0.284-0.265-0.66-0.409-1.049-0.402s-0.759 0.164-1.034 0.439c-0.275 0.275-0.432 0.646-0.439 1.034s0.137 0.765 0.402 1.049l7.44 7.44-7.44 7.44c-0.147 0.137-0.266 0.303-0.348 0.487s-0.126 0.383-0.13 0.584c-0.004 0.201 0.034 0.401 0.109 0.588s0.188 0.356 0.33 0.499c0.142 0.142 0.312 0.255 0.499 0.33s0.387 0.113 0.588 0.109c0.201-0.004 0.4-0.048 0.584-0.13s0.35-0.2 0.487-0.348l7.44-7.44 7.44 7.44c0.137 0.147 0.303 0.266 0.487 0.348s0.383 0.126 0.584 0.13c0.201 0.003 0.401-0.034 0.588-0.109s0.357-0.188 0.499-0.33c0.142-0.142 0.255-0.312 0.33-0.499s0.113-0.387 0.109-0.588c-0.003-0.201-0.048-0.4-0.13-0.584s-0.2-0.35-0.348-0.487l-7.44-7.44 7.44-7.44c0.265-0.284 0.409-0.66 0.402-1.049s-0.164-0.759-0.439-1.034-0.646-0.432-1.034-0.439c-0.389-0.007-0.765 0.137-1.049 0.402l-7.44 7.44-7.44-7.44z"
            ></path>
        </symbol>
        <symbol id="facebook" viewBox="0 0 32 32">
            <path
                d="M22.952 17.773l0.829-5.46h-5.187v-3.542c0-1.494 0.723-2.951 3.047-2.951h2.36v-4.649c0 0-2.141-0.369-4.186-0.369-4.274 0-7.065 2.616-7.065 7.349v4.162h-4.749v5.46h4.749v13.2c0.953 0.151 1.929 0.229 2.922 0.229s1.969-0.077 2.922-0.229v-13.2h4.358z"
            ></path>
        </symbol>
        <symbol id="insta" viewBox="0 0 32 32">
            <path
                d="M31.911 9.405c-0.077-1.704-0.352-2.87-0.743-3.888-0.41-1.050-0.954-1.947-1.844-2.831s-1.779-1.441-2.829-1.845c-1.018-0.397-2.183-0.666-3.886-0.743-1.709-0.077-2.253-0.096-6.593-0.096-4.346 0-4.891 0.019-6.593 0.096s-2.868 0.352-3.886 0.743c-1.056 0.41-1.952 0.954-2.836 1.845s-1.44 1.781-1.844 2.831c-0.39 1.018-0.666 2.184-0.743 3.888-0.077 1.71-0.096 2.255-0.096 6.597 0 4.349 0.019 4.893 0.096 6.597s0.352 2.869 0.743 3.888c0.41 1.051 0.954 1.947 1.844 2.831 0.883 0.89 1.78 1.441 2.829 1.845 1.018 0.397 2.183 0.666 3.886 0.743 1.709 0.077 2.253 0.096 6.593 0.096 4.347 0 4.891-0.019 6.593-0.096s2.868-0.352 3.886-0.743c1.050-0.41 1.946-0.954 2.829-1.845s1.44-1.781 1.844-2.831c0.397-1.018 0.666-2.184 0.743-3.888 0.077-1.71 0.096-2.255 0.096-6.597s-0.013-4.894-0.090-6.597zM29.037 22.472c-0.070 1.563-0.333 2.415-0.551 2.972-0.288 0.743-0.64 1.281-1.203 1.845s-1.095 0.903-1.843 1.204c-0.563 0.218-1.415 0.48-2.97 0.551-1.683 0.077-2.189 0.096-6.465 0.096s-4.782-0.019-6.465-0.096c-1.562-0.071-2.413-0.333-2.97-0.551-0.743-0.288-1.28-0.64-1.844-1.204s-0.903-1.095-1.203-1.845c-0.218-0.564-0.48-1.415-0.55-2.972-0.077-1.685-0.096-2.191-0.096-6.469s0.019-4.785 0.096-6.469c0.070-1.563 0.333-2.415 0.55-2.972 0.288-0.743 0.64-1.281 1.203-1.845s1.095-0.903 1.844-1.204c0.563-0.218 1.415-0.48 2.97-0.551 1.684-0.077 2.189-0.096 6.465-0.096s4.782 0.019 6.465 0.096c1.562 0.070 2.413 0.333 2.97 0.551 0.743 0.288 1.28 0.64 1.843 1.204s0.903 1.095 1.203 1.845c0.218 0.564 0.48 1.416 0.551 2.972 0.077 1.685 0.096 2.191 0.096 6.469s-0.026 4.785-0.096 6.469z"
            ></path>
            <path
                d="M16.003 7.779c-4.545 0-8.219 3.683-8.219 8.224 0 4.548 3.681 8.224 8.219 8.224s8.219-3.689 8.219-8.224c0-4.548-3.674-8.224-8.219-8.224zM16.003 21.338c-2.945 0-5.332-2.389-5.332-5.335s2.388-5.335 5.332-5.335c2.945 0 5.332 2.389 5.332 5.335s-2.388 5.335-5.332 5.335z"
            ></path>
            <path d="M24.543 9.38c1.061 0 1.92-0.86 1.92-1.922s-0.86-1.922-1.92-1.922c-1.061 0-1.92 0.86-1.92 1.922s0.86 1.922 1.92 1.922z"></path>
            <path
                d="M0 16.003c0 4.349 0.019 4.893 0.096 6.597s0.352 2.869 0.743 3.888c0.41 1.051 0.954 1.947 1.844 2.831 0.883 0.884 1.78 1.441 2.829 1.845 1.018 0.397 2.183 0.666 3.886 0.743 1.709 0.077 2.253 0.096 6.593 0.096 4.347 0 4.891-0.019 6.593-0.096s2.868-0.352 3.886-0.743c1.050-0.41 1.946-0.954 2.829-1.845 0.883-0.884 1.44-1.781 1.844-2.831 0.397-1.018 0.666-2.184 0.743-3.888 0.077-1.71 0.096-2.255 0.096-6.597 0-4.349-0.019-4.894-0.096-6.597s-0.352-2.87-0.743-3.888c-0.41-1.050-0.954-1.947-1.844-2.831-0.877-0.89-1.773-1.441-2.823-1.845-1.018-0.397-2.183-0.666-3.886-0.743-1.709-0.077-2.253-0.096-6.593-0.096-4.346 0-4.891 0.019-6.593 0.096s-2.868 0.352-3.886 0.743c-1.050 0.41-1.946 0.954-2.829 1.845s-1.44 1.781-1.844 2.831c-0.397 1.018-0.672 2.184-0.749 3.888s-0.096 2.248-0.096 6.597zM2.887 16.003c0-4.272 0.019-4.785 0.096-6.469 0.070-1.563 0.333-2.415 0.55-2.972 0.288-0.743 0.64-1.281 1.203-1.845s1.095-0.903 1.844-1.204c0.563-0.218 1.415-0.48 2.97-0.551 1.684-0.077 2.189-0.096 6.465-0.096s4.782 0.019 6.465 0.096c1.562 0.070 2.413 0.333 2.97 0.551 0.743 0.288 1.28 0.64 1.844 1.204s0.903 1.095 1.203 1.845c0.218 0.564 0.48 1.416 0.551 2.972 0.077 1.685 0.096 2.191 0.096 6.469s-0.019 4.785-0.096 6.469c-0.071 1.563-0.333 2.415-0.551 2.972-0.288 0.743-0.64 1.281-1.203 1.845s-1.095 0.903-1.844 1.204c-0.563 0.218-1.415 0.48-2.97 0.551-1.684 0.077-2.189 0.096-6.465 0.096s-4.782-0.019-6.465-0.096c-1.562-0.071-2.413-0.333-2.97-0.551-0.743-0.288-1.28-0.64-1.844-1.204s-0.903-1.095-1.203-1.845c-0.218-0.564-0.48-1.415-0.55-2.972-0.083-1.685-0.096-2.197-0.096-6.469z"
            ></path>
        </symbol>
        <symbol id="tg" viewBox="0 0 37 32">
            <path
                d="M14.559 32.002c-0.12 0-0.242-0.020-0.361-0.059-0.468-0.157-0.782-0.593-0.782-1.083v-10.4c0-0.327 0.14-0.638 0.386-0.856l4.818-4.27-7.96 4.628c-0.331 0.192-0.739 0.206-1.085 0.035l-8.943-4.457c-0.405-0.201-0.652-0.623-0.631-1.074 0.021-0.453 0.305-0.849 0.727-1.013l34.285-13.371c0.386-0.155 0.829-0.081 1.15 0.19 0.32 0.268 0.468 0.69 0.386 1.1l-5.962 29.714c-0.073 0.36-0.312 0.663-0.648 0.815-0.334 0.152-0.722 0.136-1.039-0.047l-9.56-5.444-3.866 5.14c-0.221 0.291-0.562 0.454-0.914 0.454zM19.030 23.773c0.194 0 0.388 0.049 0.565 0.149l9.059 5.159 5.24-26.113-29.933 11.675 6.083 3.032 17.356-10.090c0.507-0.299 1.158-0.157 1.499 0.318 0.346 0.475 0.273 1.135-0.168 1.525l-13.030 11.544v6.467l2.415-3.21c0.222-0.297 0.565-0.457 0.913-0.457z"
            ></path>
        </symbol>
    </defs>
</svg>
